/* XPM */
static char * window_close_pixmap_xpm[] = {
"16 16 3 1",
" 	c None",
".	c #1F1F1F",
"+	c #FFFFFF",
"................",
"................",
"...++......++...",
"..+  +....+  +..",
"..+   +..+   +..",
"...+   ++   +...",
"....+      +....",
".....+    +.....",
".....+    +.....",
"....+     .+....",
"...+   ++   +...",
"..+   +..+   +..",
"..+  +....+  +..",
"...++......++...",
"................",
"................"};
