/* XPM */
static char * SleekGrey_base_xpm[] = {
"16 16 95 2",
"  	c None",
". 	c #3F3F3F",
"+ 	c #414141",
"@ 	c #424141",
"# 	c #414241",
"$ 	c #424142",
"% 	c #414242",
"& 	c #414142",
"* 	c #424241",
"= 	c #444444",
"- 	c #444445",
"; 	c #444545",
"> 	c #454545",
", 	c #454445",
"' 	c #454444",
") 	c #474747",
"! 	c #484847",
"~ 	c #474748",
"{ 	c #474848",
"] 	c #484848",
"^ 	c #484747",
"/ 	c #484748",
"( 	c #4B4A4A",
"_ 	c #4A4A4B",
": 	c #4B4B4B",
"< 	c #4B4B4A",
"[ 	c #4A4B4B",
"} 	c #4D4E4D",
"| 	c #4E4E4E",
"1 	c #4E4D4E",
"2 	c #4E4E4D",
"3 	c #4D4E4E",
"4 	c #4F4E4E",
"5 	c #515051",
"6 	c #515151",
"7 	c #515150",
"8 	c #505150",
"9 	c #515251",
"0 	c #515152",
"a 	c #545454",
"b 	c #545453",
"c 	c #535454",
"d 	c #545354",
"e 	c #555454",
"f 	c #545455",
"g 	c #555455",
"h 	c #565757",
"i 	c #575757",
"j 	c #585757",
"k 	c #575758",
"l 	c #575857",
"m 	c #585858",
"n 	c #5A5A5A",
"o 	c #5B5A5A",
"p 	c #5A5A5B",
"q 	c #5B5A5B",
"r 	c #5B5B5A",
"s 	c #5A5B5A",
"t 	c #5D5D5D",
"u 	c #5E5D5D",
"v 	c #5D5E5D",
"w 	c #5D5E5E",
"x 	c #5E5D5E",
"y 	c #5E5E5D",
"z 	c #5D5D5E",
"A 	c #5E5E5E",
"B 	c #606060",
"C 	c #606160",
"D 	c #616160",
"E 	c #606061",
"F 	c #606161",
"G 	c #616061",
"H 	c #636363",
"I 	c #636364",
"J 	c #636463",
"K 	c #646364",
"L 	c #636464",
"M 	c #646463",
"N 	c #646464",
"O 	c #676666",
"P 	c #666666",
"Q 	c #666766",
"R 	c #666667",
"S 	c #676767",
"T 	c #696969",
"U 	c #696A69",
"V 	c #69696A",
"W 	c #696A6A",
"X 	c #6A696A",
"Y 	c #6A6969",
"Z 	c #6A6A69",
"` 	c #6A6A6A",
" .	c #6D6D6D",
"..	c #6D6D6C",
"+.	c #6C6D6D",
". . . . . . . . . . . . . . . . ",
"+ + @ # # $ + + @ % @ $ % % & * ",
"= = = - = = = ; ; = > , ' ; > > ",
") ) ! ~ { ~ ] ^ ! ! / ] ] ] ^ ! ",
"( ( ( _ _ _ : ( : < < _ [ : [ : ",
"} | 1 2 } 1 | 1 | 3 | | 2 | | 4 ",
"5 6 7 8 6 6 6 5 6 6 6 6 6 6 9 0 ",
"a a b a a a c d a a a e a a f g ",
"h i i i i i i j k i i i l i j m ",
"n n n n o o p p q o r n s p p p ",
"t u t t t t v w x w y z v t A z ",
"B B B B C B B C D E C D F G G D ",
"H H I I J K L M I L M N N K N M ",
"O P P O P P Q R S S P S S S S S ",
"T U V W X Y Z X ` ` W ` ` ` ` ` ",
" . .......+. . . . . .+. . . . ."};
