/* XPM */
static char * window_close_pressed_icon_xpm[] = {
"16 16 2 1",
" 	c None",
".	c #FFFFFF",
"                ",
"                ",
"   ..      ..   ",
"  ....    ....  ",
"  .....  .....  ",
"   ..........   ",
"    ........    ",
"     ......     ",
"     ......     ",
"    ........    ",
"   ..........   ",
"  .....  .....  ",
"  ....    ....  ",
"   ..      ..   ",
"                ",
"                "};
