/* XPM */
static char * window_iconify_unfocus_icon_xpm[] = {
"16 16 2 1",
" 	c None",
".	c #3F3F3F",
"                ",
"                ",
"       ..       ",
"      .  .      ",
"      .  .      ",
"      .  .      ",
"      .  .      ",
"  .....  .....  ",
"  .          .  ",
"   .        .   ",
"    .      .    ",
"     .    .     ",
"      .  .      ",
"       ..       ",
"                ",
"                "};
