/* XPM */
static char * window_maximize_focus_icon_xpm[] = {
"16 16 2 1",
" 	c None",
".	c #FFFFFF",
"                ",
"                ",
"                ",
"    .........   ",
"   .        .   ",
"    .       .   ",
"     .      .   ",
"      .     .   ",
"     .      .   ",
"    .   .   .   ",
"   .   . .  .   ",
"   .  .   . .   ",
"    ..     .    ",
"                ",
"                ",
"                "};
