/* XPM */
static char * window_grip_pixmap_xpm[] = {
"16 16 2 1",
" 	c #FFFFFF",
".	c #000000",
"                ",
"                ",
"         .   .  ",
"         .      ",
"         .   .  ",
"         .      ",
"         .   .  ",
"         .      ",
"         .   .  ",
"  ........      ",
"             .  ",
"                ",
"             .  ",
"  . . . . . .   ",
"                ",
"                "};
